<?xml version="1.0" encoding="utf-8"?>
<!-- Generator: Adobe Illustrator 19.0.0, SVG Export Plug-In . SVG Version: 6.00 Build 0)  -->
<svg version="1.1" id="Layer_1" xmlns="http://www.w3.org/2000/svg" xmlns:xlink="http://www.w3.org/1999/xlink" x="0px" y="0px"
	 viewBox="0 0 100 100" style="enable-background:new 0 0 100 100;" xml:space="preserve">
<style type="text/css">
	.st0{fill:#FF999E;}
</style>
<g id="XMLID_98_">
	<g id="XMLID_101_">
		<g id="XMLID_188_">
			<path id="XMLID_189_" class="st0" d="M52,35.3c-1.1,0-2.3-0.7-3.4-2c-2.6-2.9-4.2-6.8-4.2-10.6l0,0c0-1.1,0.1-2.7,1-4
				c0.8-1,2-1.5,3-1.9c1.5-0.6,3.3-1.1,5-0.4c1.2,0.5,2.2,1.6,2.8,3.1c0.5,1.2,0.6,2.5,0.6,3.8c0.1,2.2,0.1,4.6-0.5,7
				c-0.8,2.9-2.1,4.7-3.7,5.1C52.4,35.3,52.2,35.3,52,35.3z M45.9,22.7c0.1,3.5,1.5,6.9,3.8,9.6c0.7,0.8,1.7,1.6,2.5,1.4
				c1-0.2,1.9-1.7,2.5-4c0.6-2.1,0.6-4.3,0.5-6.5c-0.1-1.1-0.1-2.3-0.5-3.3c-0.4-1-1.1-1.8-1.9-2.1c-1.2-0.5-2.6,0-3.8,0.4
				c-0.8,0.3-1.8,0.7-2.4,1.4C46.1,20.4,45.9,21.3,45.9,22.7L45.9,22.7z"/>
		</g>
		<g id="XMLID_184_">
			<path id="XMLID_185_" class="st0" d="M46.6,65.5c-1.2,0-2.2-0.4-2.9-1.1c-0.9-0.9-1.2-2.1-1.5-3.1l-1.5-5.6
				c-0.9-3.3,0.3-7,2.8-8.5c2.1-1.2,4.5-0.8,6.8,1.3l0,0c1.9,1.7,2.7,4.1,3.3,6.1c1,3.5,0.7,6-0.7,7.8c-0.7,0.9-1.8,1.6-2.6,2
				C49,65.1,47.7,65.5,46.6,65.5z M45.9,48.1c-0.6,0-1.1,0.1-1.6,0.4c-1.9,1.1-2.8,4.1-2.1,6.7l1.5,5.6c0.2,0.9,0.5,1.8,1.1,2.4
				c1.2,1.1,3.3,0.6,4.9-0.2c0.7-0.4,1.5-0.9,2.1-1.6c1.1-1.4,1.2-3.5,0.4-6.4c-0.5-1.7-1.2-3.9-2.8-5.4
				C48.1,48.6,47,48.1,45.9,48.1z"/>
		</g>
		<g id="XMLID_182_">
			<path id="XMLID_92_" class="st0" d="M53.9,58.2l-0.7-1.4c0.3-0.1,0.6-0.3,1-0.4c1.3-0.5,2.9-1.2,3.5-2.1c0.9-1.3,0.9-3.1,0.8-4.7
				c-0.1-1.9-0.6-4.2-2.3-5c-0.5-0.2-1-0.3-1.7-0.3c-2.3,0-4.6,1.2-6,3.1l-1.3-0.9c1.7-2.3,4.4-3.7,7.3-3.8c0.9,0,1.7,0.1,2.4,0.4
				c1.9,0.8,3,3,3.3,6.3c0.1,1.8,0.1,3.9-1.1,5.6c-0.9,1.3-2.7,2.1-4.2,2.7C54.5,58,54.2,58.1,53.9,58.2z"/>
		</g>
		<g id="XMLID_180_">
			<path id="XMLID_91_" class="st0" d="M58.2,69.7c-1.2,0-2.4-0.4-3.4-0.9c-2-1.1-3.4-2.9-4.6-4.5l1.2-1c1.1,1.5,2.5,3.1,4.1,4.1
				c1.4,0.8,3.5,1.1,4.9,0c1.4-1.2,1.5-3.3,1.4-4.2c-0.1-2.5-1.2-4.9-2.9-6.7c-0.1-0.1-0.3-0.2-0.5-0.3c-0.4-0.2-1.2-0.7-0.9-1.8
				l1.5,0.5c0,0-0.1-0.1-0.1-0.2c0,0,0.1,0.1,0.2,0.1c0.2,0.1,0.5,0.3,0.8,0.6c2,2,3.2,4.8,3.4,7.7c0.1,2.3-0.6,4.3-2,5.4
				C60.5,69.4,59.4,69.7,58.2,69.7z"/>
		</g>
		<g id="XMLID_178_">
			<path id="XMLID_90_" class="st0" d="M62.4,61.9l-0.1-1.6c1.4-0.1,3.6-1.2,4.5-2.3c0.8-0.9,1.7-2.2,1.7-3.5c0-0.5-0.2-1.1-0.5-1.7
				c-1.3-2.6-5.4-4.3-8.6-3.6l-0.3-1.5c3.9-0.8,8.7,1.2,10.3,4.5c0.4,0.8,0.6,1.6,0.6,2.4c0,1.8-1.1,3.4-2.1,4.5
				C66.8,60.4,64.2,61.8,62.4,61.9z"/>
		</g>
		<g id="XMLID_176_">
			<path id="XMLID_89_" class="st0" d="M69.1,52.3L68.2,51c1-0.7,1.8-1.9,2-3.5c0.3-1.7,0-3.4-0.8-4.7c-0.9-1.4-2.3-2.4-3.9-2.5
				c-0.8-0.1-1.7,0.1-2.5,0.2c-2.1,0.4-4.8,1.9-5.8,3.8L57,44.8l-0.7-0.1c-0.8-0.2-0.8-1.5-0.8-1.6l0.6,0c1.4-2.3,4.4-3.9,6.7-4.3
				c0.9-0.2,1.9-0.3,2.9-0.2c2,0.2,3.9,1.4,5,3.2c1,1.6,1.4,3.8,1.1,5.8C71.4,49.7,70.5,51.4,69.1,52.3z"/>
		</g>
		<g id="XMLID_174_">
			<path id="XMLID_88_" class="st0" d="M71.5,45l-1.2-1.1c1-1.1,2.2-2.8,2.4-4.2c0.2-1.5-0.2-3-1.1-4c-1.3-1.5-3.8-2.1-7.2-1.8
				c-1.4,0.1-3,0.4-4.1,1.3c-0.4,0.3-0.7,0.7-1.1,1.4c-0.9,1.4-1.2,4-0.7,5.4l-1.5,0.6c-0.7-1.9-0.3-5,0.9-6.8
				c0.3-0.5,0.8-1.2,1.4-1.7c1.4-1.2,3.3-1.5,4.9-1.7c4-0.4,6.8,0.4,8.5,2.3c1.2,1.3,1.7,3.3,1.5,5.2C74,42.1,72.1,44.4,71.5,45z"/>
		</g>
		<g id="XMLID_172_">
			<path id="XMLID_87_" class="st0" d="M73.9,38.4L73.2,37c1.4-0.7,2.7-2.7,2.6-4.2c-0.1-1.9-1.3-3.5-2.2-4.5
				c-0.4-0.4-0.8-0.8-1.3-1c-0.3-0.1-0.8-0.1-1.2-0.1c-0.8,0-1.7-0.1-2.5,0.1c-1.4,0.2-2.7,0.9-4,1.5c-1.2,0.6-2.5,1.2-3.4,2.2
				c-0.8,0.8-1.6,3.3-1.5,4.6l-1.6,0.2c-0.2-1.6,0.7-4.7,2-5.9c1.1-1.1,2.5-1.8,3.8-2.4c1.3-0.7,2.8-1.4,4.5-1.7
				c0.9-0.1,1.9-0.1,2.8-0.1c0.5,0,1,0,1.6,0.2c0.9,0.3,1.5,0.9,2,1.4c1.1,1.2,2.5,3.1,2.6,5.4C77.5,34.9,76,37.5,73.9,38.4z"/>
		</g>
		<g id="XMLID_170_">
			<path id="XMLID_86_" class="st0" d="M57.5,37.5c-1.7-2.3-2.2-5.5-1.3-8.2c0.4-1.2,1-2.3,1.6-3.2c1.4-2.3,3.3-4.8,6-5.6
				c1.8-0.5,3.8-0.3,5.4,0.7c1.6,1,2.9,3.4,3.3,5.2l-1.5,0.3c-0.3-1.4-1.4-3.4-2.5-4.2c-1.2-0.7-2.7-0.9-4.1-0.5
				c-2.3,0.7-3.8,2.8-5.2,5c-0.6,0.9-1.1,1.9-1.5,2.9c-0.8,2.3-0.3,4.9,1.1,6.8L57.5,37.5z"/>
		</g>
		<g id="XMLID_168_">
			<path id="XMLID_85_" class="st0" d="M56.6,22.1l-1.5-0.4c0.5-1.8,2.5-3.5,4.4-3.7c1.9-0.2,3.8,0.8,4.7,2.5l-1.4,0.8
				c-0.6-1.1-1.9-1.8-3.1-1.6C58.5,19.7,57,20.9,56.6,22.1z"/>
		</g>
		<g id="XMLID_166_">
			<path id="XMLID_84_" class="st0" d="M55,37.5c0,0-0.1,0-0.1,0c-1.1-0.1-2.1-0.9-2.6-2c-0.3-0.7-0.1-1.2,0.1-1.4l1.2,1
				c0.1-0.1,0.1-0.3,0.1-0.3c0.3,0.7,0.8,1.1,1.4,1.2c0,0,0.2,0,0.5-0.3c0.4-0.3,0.7-0.9,0.7-1.1l1.6,0.1c-0.1,0.8-0.7,1.7-1.3,2.2
				C56,37.2,55.5,37.5,55,37.5z"/>
		</g>
		<g id="XMLID_164_">
			<path id="XMLID_83_" class="st0" d="M38.8,64.2c-0.3,0-0.7,0-1-0.1c-2-0.4-3.9-2.1-4.8-4.4c-0.8-2-0.9-4.2-0.8-6.2
				c0-1.2,0.1-2.4,0.7-3.5c0.8-1.4,2.4-2.3,4.2-2.4c1.8,0,4,1.1,5.1,1.9l-0.9,1.3c-1.1-0.8-3-1.6-4.1-1.6c-1.2,0-2.3,0.7-2.9,1.6
				c-0.4,0.8-0.5,1.8-0.5,2.8c0,1.9,0,3.9,0.7,5.6c0.7,1.8,2.1,3.1,3.6,3.5c1.6,0.3,3.4-0.7,3.8-2.1l1.5,0.3
				C43,62.8,41,64.2,38.8,64.2z"/>
		</g>
		<g id="XMLID_162_">
			<path id="XMLID_82_" class="st0" d="M30.4,64c-0.1,0-0.2,0-0.3,0c-1.6-0.1-3-0.7-4.5-1.4c-0.8-0.3-1.5-0.7-2.1-1.3
				c-1-1-1.2-2.5-1.2-3.5c0-2.8,1.4-5.7,3.8-7.5c2.8-2.2,7.5-2.1,8.9-2.1L35,49.8c-2.5-0.1-6,0.3-7.9,1.8c-2,1.5-3.2,3.9-3.2,6.3
				c0,0.7,0.1,1.7,0.8,2.4c0.4,0.4,1,0.7,1.6,1c1.3,0.6,2.6,1.1,4,1.2c1.2,0.1,2.9-0.9,3.7-1.8l1.2,1C34.1,62.8,32.1,64,30.4,64z"/>
		</g>
		<g id="XMLID_160_">
			<path id="XMLID_81_" class="st0" d="M22.3,58.2c-1.2,0-2.3-0.9-2.8-1.9c-0.5-0.9-0.6-2.1-0.4-3.6c0.3-2.5,1.3-4.7,2.4-6.7
				c0.5-1,1.1-2.1,1.9-2.9c2-2.1,5.2-2.7,7.8-1.6c2.6,1.1,4.3,3.9,4.2,6.8l-1.6-0.1c0.1-2.2-1.2-4.4-3.2-5.2c-2-0.9-4.5-0.3-6,1.2
				c-0.7,0.7-1.2,1.7-1.7,2.6c-1,1.9-1.9,4-2.2,6.2c-0.2,1.1-0.1,2,0.3,2.6c0.3,0.6,1,1.1,1.7,1l0.4,1.5
				C22.7,58.2,22.5,58.2,22.3,58.2z"/>
		</g>
		<g id="XMLID_158_">
			<path id="XMLID_80_" class="st0" d="M17.3,56.1c-1.1,0-2.2-0.7-2.7-1.8c-0.5-0.9-0.5-2-0.5-2.9c0-1.1,0.1-2.3,0.3-3.5
				c0.2-1.4,0.5-3.3,1.4-4.9c0.9-1.7,2.4-3,4-3.5c2-0.6,4,0,5.5,0.5c0.4,0.1,0.9,0.4,1.3,0.7c0.3,0.2,0.6,0.4,0.8,0.5l-0.6,1.4
				c-0.3-0.1-0.7-0.4-1-0.6c-0.4-0.2-0.8-0.5-1-0.6c-1.3-0.5-3-1-4.6-0.5c-1.2,0.4-2.4,1.4-3.1,2.7c-0.8,1.4-1.1,3.1-1.2,4.4
				c-0.2,1.2-0.2,2.3-0.3,3.3c0,0.8,0,1.6,0.4,2.2c0.3,0.6,0.9,1,1.3,1c0.5,0,1.4-0.4,1.9-0.9l1,1.2C19.6,55.4,18.4,56,17.3,56.1
				C17.3,56.1,17.3,56.1,17.3,56.1z"/>
		</g>
		<g id="XMLID_156_">
			<path id="XMLID_79_" class="st0" d="M34.9,45.8L33.6,45c0.5-0.9,1-1.8,0.9-2.6c-0.1-0.4-0.2-0.7-0.6-1.2
				c-1.3-1.8-3.3-3.3-6.3-4.7c-0.7-0.3-1.6-0.7-2.4-0.7c0,0,0,0,0,0c-0.9,0-1.9,0.5-2.7,1.3c-0.7,0.7-1.2,1.7-1.6,2.9l-1.5-0.5
				c0.5-1.5,1.1-2.7,1.9-3.5c1.1-1.1,2.5-1.8,3.8-1.8c0,0,0,0,0,0c1.1,0,2.2,0.4,3.1,0.8c3.3,1.5,5.5,3.2,6.9,5.2
				c0.3,0.5,0.7,1.1,0.8,1.8C36.2,43.6,35.4,44.9,34.9,45.8z"/>
		</g>
		<g id="XMLID_154_">
			<path id="XMLID_78_" class="st0" d="M35.5,43.5L35,42c0.9-0.3,2.1-1.2,2.3-2.1c0.2-0.9,0.1-2-0.3-3.3c-0.8-2.5-2.3-4.9-4.3-6.7
				c-1.2-1.1-2.3-1.7-3.4-1.9c-1.3-0.3-2.6,0.1-3.4,0.9c-0.4,0.4-0.7,1-1,1.8c-0.4,1.1-0.6,2.9-0.5,4.2L22.9,35
				c-0.1-1.5,0.1-3.5,0.5-4.8c0.3-1,0.8-1.8,1.4-2.4c1.1-1.2,3-1.7,4.8-1.3c1.4,0.3,2.8,1,4.2,2.3c2.2,2,3.9,4.5,4.7,7.4
				c0.5,1.6,0.6,2.9,0.3,4C38.5,41.8,36.8,43.1,35.5,43.5z"/>
		</g>
		<g id="XMLID_152_">
			<path id="XMLID_77_" class="st0" d="M39,40.9c-0.4,0-0.7-0.1-1-0.3l0.9-1.3c0.2,0.1,0.6,0,1-0.3c2.1-1.9,1.3-5.3,1-6.4
				c-0.8-2.8-2.3-5.2-4.4-7.2c-1-0.9-1.8-1.4-2.6-1.5c-0.9-0.2-1.9,0.1-2.6,0.8c-0.7,0.6-1,1.6-0.9,2.5l-1.6,0.2
				c-0.2-1.4,0.4-2.9,1.4-3.8c1-1,2.5-1.4,3.9-1.2c1.5,0.3,2.6,1.2,3.4,1.9c2.3,2.1,4,4.9,4.8,7.9c0.9,3.3,0.4,6.3-1.5,8
				C40.3,40.6,39.6,40.9,39,40.9z"/>
		</g>
		<g id="XMLID_150_">
			<path id="XMLID_76_" class="st0" d="M44.8,36.2c-1.2,0-2.6-0.4-3.3-1.1l1.1-1.2c0.6,0.6,2.3,0.9,3.1,0.6c0.8-0.3,1.8-1.7,1.9-2.7
				L49,32c-0.1,1.5-1.5,3.5-2.9,4C45.8,36.2,45.3,36.2,44.8,36.2z"/>
		</g>
		<g id="XMLID_148_">
			<path id="XMLID_75_" class="st0" d="M35.2,23.8c-0.3-1.5,0.3-3.1,1.6-4.7c0.9-1.1,1.8-1.8,2.7-2.2c0.7-0.3,1.4-0.3,2-0.4
				c0.7-0.1,1.5-0.1,2.2,0c1,0.2,2,0.8,2.6,1.6l-1.2,1c-0.4-0.5-1-0.9-1.7-1c-0.6-0.1-1.2-0.1-1.8,0c-0.6,0-1.1,0.1-1.6,0.3
				c-0.7,0.2-1.3,0.8-2,1.7c-0.7,0.9-1.5,2.2-1.2,3.5L35.2,23.8z"/>
		</g>
		<g id="XMLID_146_">
			<path id="XMLID_74_" class="st0" d="M49.7,77.7c-0.1,0-0.1,0-0.2,0c-1.3-0.1-2.6-0.8-3.5-2c-0.7-0.9-1.2-2.1-1.4-3.6
				c-0.4-2.2-0.2-5,0.5-7.2l1.5,0.5c-0.6,1.9-0.8,4.5-0.4,6.5c0.2,1.2,0.6,2.2,1.1,2.9c0.6,0.8,1.5,1.3,2.4,1.4
				c0.4,0,0.9-0.1,1.4-0.3c2.7-0.9,4.7-3.6,4.9-6.5l1.6,0.1c-0.2,3.5-2.7,6.7-6,7.9C50.8,77.6,50.2,77.7,49.7,77.7z"/>
		</g>
		<g id="XMLID_144_">
			<path id="XMLID_73_" class="st0" d="M40.6,77.5c-0.4,0-0.9,0-1.3-0.2c-0.9-0.3-1.7-1-2.4-2c-2.3-3.5-1.7-8.7-0.2-12.2l1.4,0.6
				c-1.4,3.2-1.9,7.8,0.1,10.7c0.5,0.7,1,1.2,1.6,1.4c0.6,0.2,1.3,0.1,2,0c0.6-0.1,1.2-0.2,1.7-0.4c0.5-0.2,1.5-1.4,1.5-1.7l1.6,0.1
				c0,1.1-1.7,2.7-2.4,3.1c-0.7,0.4-1.5,0.5-2.2,0.6C41.5,77.4,41.1,77.5,40.6,77.5z"/>
		</g>
		<g id="XMLID_142_">
			<path id="XMLID_72_" class="st0" d="M33.3,74.9c-0.4,0-0.7,0-1-0.1c-1.6-0.4-3-1.2-3.9-2.3c-1-1.3-1.5-3-1.2-4.5
				c0.2-1,0.7-1.9,1.1-2.7c0.1-0.2,0.3-0.7,0.5-1.1c0.2-0.5,0.5-1,0.6-1.3l1.4,0.8c-0.1,0.2-0.3,0.7-0.6,1.2c-0.2,0.5-0.5,1-0.6,1.2
				c-0.4,0.7-0.8,1.5-1,2.3c-0.2,1.1,0.1,2.3,0.9,3.2c0.7,0.9,1.8,1.5,3,1.8c1,0.2,2.8-0.2,3.3-0.8l1.3,0.9
				C36.4,74.4,34.7,74.9,33.3,74.9z"/>
		</g>
		<g id="XMLID_140_">
			<path id="XMLID_71_" class="st0" d="M25,69.4c-1.3,0-2.6-0.3-3.7-1c-2.1-1.3-3.4-3.6-3.5-6.1c0-1.9,1.2-4.4,2.3-6.3l1.4,0.8
				c-0.6,1-2.1,3.8-2.1,5.5c0,1.9,1.1,3.7,2.7,4.7c1.6,1,3.8,1,5.4,0.2l0.7,1.4C27.3,69.1,26.2,69.4,25,69.4z"/>
		</g>
		<g id="XMLID_138_">
			<path id="XMLID_70_" class="st0" d="M61.5,72.6c-1.8,0-3.6-0.6-5-1.7l1-1.2c1.7,1.3,4.1,1.7,6.1,1c2-0.7,3.7-2.5,4.2-4.6
				c0.2-0.8,0.3-1.6,0.3-2.5c0.1-1.6,0.1-3.3-0.8-4.3l1.2-1c1.3,1.5,1.3,3.5,1.2,5.4c-0.1,1-0.1,1.9-0.4,2.8
				c-0.7,2.6-2.7,4.8-5.2,5.7C63.2,72.4,62.4,72.6,61.5,72.6z"/>
		</g>
		<g id="XMLID_136_">
			<path id="XMLID_69_" class="st0" d="M68.8,67.5l-1-1.3c0.4-0.3,0.8-0.6,1.2-0.9c1.7-1.2,3.7-2.7,4.2-4.4c0.4-1.5,0.2-3.2-0.6-5.5
				c-0.8-2.1-1.7-3.3-2.9-3.8l0.6-1.4c2.1,0.9,3.2,3.1,3.8,4.7c0.6,1.6,1.3,4.1,0.7,6.5c-0.6,2.3-2.8,3.8-4.8,5.2
				C69.6,67,69.2,67.2,68.8,67.5z"/>
		</g>
		<g id="XMLID_134_">
			<path id="XMLID_68_" class="st0" d="M72.9,54.1c-0.2,0-0.4,0-0.6,0l0.2-1.6c1.6,0.2,3.2-0.8,3.7-2.3c0.3-0.7,0.3-1.5,0.3-2.2
				c0-1.5-0.3-2.8-0.8-3.7c-0.6-1.1-1.6-1.9-2.7-2.1l0.2-1.6c1.6,0.2,3,1.3,3.8,2.9c0.6,1.2,1,2.7,1,4.5c0,0.8,0,1.8-0.4,2.7
				C77,52.7,75,54.1,72.9,54.1z"/>
		</g>
		<g id="XMLID_132_">
			<path id="XMLID_67_" class="st0" d="M78,48.5l-1.3-0.9c1.2-1.7,2.4-4.2,2.2-5.8c-0.2-1.8-1.7-4.2-3.1-5.4l-0.5-0.4l0.2-0.7
				l0.3-0.6l0.7,0.2l0.1,0.4l0.2-0.2c1.8,1.5,3.5,4.3,3.8,6.5C80.7,43.7,79.4,46.6,78,48.5z"/>
		</g>
		<g id="XMLID_130_">
			<path id="XMLID_66_" class="st0" d="M78.8,57.1l-0.9-1.3c1.5-1,2.5-2.7,2.6-4.5c0.1-1.8-0.6-3.6-1.9-4.8l1.1-1.2
				c1.7,1.6,2.5,3.8,2.4,6.1C81.9,53.7,80.7,55.8,78.8,57.1z"/>
		</g>
		<g id="XMLID_128_">
			<path id="XMLID_65_" class="st0" d="M74.8,65.9c-0.5,0-1-0.1-1.5-0.2c-0.7-0.1-1.5-0.2-1.9-0.1l-0.5-1.5c0.7-0.2,1.7-0.1,2.6,0.1
				c0.5,0.1,1.1,0.2,1.4,0.2c1.8-0.2,2.7-2.7,3-3.5c0.5-1.7,0.6-3.1,0.4-4.3c-0.3-1.4-1.7-3.1-2.9-3.5l0.6-1.5
				c1.7,0.6,3.4,2.8,3.8,4.7c0.3,1.5,0.2,3.2-0.4,5.1c-0.8,2.7-2.4,4.4-4.3,4.6C75,65.9,74.9,65.9,74.8,65.9z"/>
		</g>
		<g id="XMLID_126_">
			<path id="XMLID_64_" class="st0" d="M66.5,73.7c-1.3,0-2.6-0.4-3.7-1.2l1-1.2c1.9,1.5,4.6,0.9,6.3-0.3c0.3-0.3,0.6-0.5,0.8-0.8
				c1-1.2,1.1-3.6,1.1-5l1.6,0c-0.1,2.2-0.2,4.5-1.5,6c-0.3,0.4-0.6,0.7-1.1,1C69.8,73.1,68.2,73.7,66.5,73.7z"/>
		</g>
		<g id="XMLID_124_">
			<path id="XMLID_63_" class="st0" d="M71.8,72.5c-0.5,0-1-0.1-1.4-0.2l0.4-1.5c1.2,0.3,2.9,0,3.5-1.1c0.7-1.2,0.8-3.3,1-4.8l0-0.2
				l1.6,0.1l0,0.2c-0.1,1.7-0.3,3.9-1.2,5.4C74.9,71.9,73.3,72.5,71.8,72.5z"/>
		</g>
		<g id="XMLID_122_">
			<path id="XMLID_62_" class="st0" d="M56.5,80.1c-0.1,0-0.1,0-0.2,0c-2-0.1-3.8-1-5.4-1.9c-0.2-0.1-0.6-0.4-0.7-0.9l-0.1-0.4
				l0.3-0.4l0.6,0.6l0.7,0.1c0-0.2-0.1-0.3-0.1-0.3c1.4,0.8,3,1.6,4.7,1.7c2,0.2,4.1-1.1,6.4-3.5c0.7-0.7,1.2-1.4,1.3-2l1.6,0.2
				c-0.1,1.2-0.9,2.1-1.7,3C61.4,78.8,59,80.1,56.5,80.1z"/>
		</g>
		<g id="XMLID_120_">
			<path id="XMLID_61_" class="st0" d="M50,83.1c-3.7,0-7.4-2.3-9-5.7l1.4-0.7c1.4,3.2,5.1,5.2,8.6,4.7c1.3-0.2,2.9-0.9,3.5-2.2
				l1.5,0.6c-0.7,1.7-2.4,2.9-4.7,3.2C50.9,83.1,50.4,83.1,50,83.1z"/>
		</g>
		<g id="XMLID_118_">
			<path id="XMLID_60_" class="st0" d="M61,81.9c-0.4,0-0.7,0-1,0c-1.4-0.1-3.2-1.1-4.2-1.9l1-1.2c0.9,0.7,2.3,1.5,3.3,1.6
				c0.7,0.1,1.5,0.1,2.2-0.1c1.1-0.3,2.2-1.3,2.8-2.6c0.6-1.3,0.9-3.2,1.1-4.6l1.6,0.2c-0.2,1.5-0.5,3.6-1.2,5.1
				c-0.8,1.7-2.2,3-3.8,3.4C62.2,81.9,61.6,81.9,61,81.9z"/>
		</g>
		<g id="XMLID_116_">
			<path id="XMLID_59_" class="st0" d="M67.8,78.2c-0.5,0-0.9-0.1-1.4-0.2l0.5-1.5c1,0.4,2.2,0,3-0.8c0.8-0.7,1.3-2.6,1.5-4l1.6,0.3
				c-0.2,1.1-0.7,3.7-2,4.9C70.1,77.7,68.9,78.2,67.8,78.2z"/>
		</g>
		<g id="XMLID_114_">
			<path id="XMLID_58_" class="st0" d="M56.9,85.7c-1,0-2-0.3-3-0.8c-0.8-0.4-2.2-1.4-2.9-2.1l1.2-1.1c0.5,0.5,1.8,1.4,2.5,1.8
				c0.9,0.5,1.6,0.7,2.4,0.6c0.8,0,1.5-0.4,1.9-1c0.3-0.5,0.4-1.2,0.5-1.8l1.6,0.2c-0.1,0.7-0.3,1.7-0.8,2.5c-0.7,1-1.8,1.6-3.1,1.7
				C57.1,85.7,57,85.7,56.9,85.7z"/>
		</g>
		<g id="XMLID_112_">
			<path id="XMLID_57_" class="st0" d="M52,86.6c-0.4,0-0.8-0.1-1.2-0.2c-1.7-0.5-3.3-2.4-3.7-3.9l1.5-0.4c0.3,1.2,1.6,2.5,2.6,2.8
				c1.1,0.3,2.3,0,3.1-0.8l1.1,1.1C54.6,86.2,53.3,86.6,52,86.6z"/>
		</g>
		<g id="XMLID_110_">
			<path id="XMLID_56_" class="st0" d="M41,82.4c-0.5,0-1-0.1-1.4-0.2c-1.3-0.4-2.7-1.2-4-2.5c-0.7-0.7-1.2-1.2-1.7-1.9
				c-0.6-0.9-1.1-2-1.4-3.1l1.5-0.4c0.2,0.9,0.6,1.8,1.1,2.5c0.4,0.5,0.8,1,1.5,1.6c1.2,1.1,2.3,1.8,3.4,2.1c1.1,0.3,2.9,0,4.1-0.8
				l0.9,1.3C44,81.8,42.4,82.4,41,82.4z"/>
		</g>
		<g id="XMLID_108_">
			<path id="XMLID_55_" class="st0" d="M46.8,86.5c-2.5,0-4.5-0.6-5.8-1.8c-0.9-0.8-1.3-1.7-1.3-2.6l1.6,0c0,0.6,0.5,1.1,0.8,1.3
				c1.3,1.1,3.2,1.5,5.8,1.4c0.7,0,0.8-0.2,0.8-0.2l1.3,0.8c-0.5,0.9-1.7,1-2.1,1C47.5,86.5,47.2,86.5,46.8,86.5z"/>
		</g>
		<g id="XMLID_106_">
			<path id="XMLID_54_" class="st0" d="M35.9,79.9c-2.8-0.6-5.9-1.5-7.4-3.5c-0.7-0.9-0.7-2.5-0.7-4.3c0-0.3,0-0.5,0-0.8l1.6-0.1
				c0,0.2,0,0.5,0,0.8c0,1,0,2.8,0.4,3.3c1.2,1.6,4.1,2.4,6.4,2.9L35.9,79.9z"/>
		</g>
		<g id="XMLID_104_">
			<path id="XMLID_53_" class="st0" d="M39.2,85.2c-1.3,0-2.5-0.3-3.6-1c-1.8-1.1-3-3.6-3.3-5.6l1.6-0.2c0.2,1.6,1.3,3.6,2.6,4.4
				c1.3,0.8,3,1,4.5,0.5l0.5,1.5C40.7,85.1,39.9,85.2,39.2,85.2z"/>
		</g>
		<g id="XMLID_102_">
			<path id="XMLID_51_" class="st0" d="M27.4,74.5c-1.3,0-2.6-0.5-3.6-1.3c-1.3-1.1-2-3.3-2.1-4.9l1.6,0c0,1.3,0.6,3.1,1.5,3.8
				c0.9,0.7,2.1,1.1,3.3,0.9l0.3,1.6C28,74.4,27.7,74.5,27.4,74.5z"/>
		</g>
	</g>
	<g id="XMLID_99_">
		<path id="XMLID_50_" class="st0" d="M18.2,63c-4.4-3-3.5-8.3-3.4-8.5l1.5,0.3c0,0.2-0.7,4.5,2.8,6.9L18.2,63z"/>
	</g>
</g>
</svg>
