<?xml version="1.0" encoding="utf-8"?>
<!-- Generator: Adobe Illustrator 19.0.0, SVG Export Plug-In . SVG Version: 6.00 Build 0)  -->
<svg version="1.1" id="Layer_1" xmlns="http://www.w3.org/2000/svg" xmlns:xlink="http://www.w3.org/1999/xlink" x="0px" y="0px"
	 viewBox="-247 370.9 100 100" style="enable-background:new -247 370.9 100 100;" xml:space="preserve">
<style type="text/css">
	.st0{fill:#FF999E;}
</style>
<g>
	<g>
		<g>
			<path class="st0" d="M-193.6,407c-1.1,0-2.3-0.7-3.5-2c-2.7-3-4.3-7.1-4.4-11.1l0,0c0-1.1,0.1-2.8,1.1-4.1c0.8-1,2-1.6,3.1-2
				c1.6-0.6,3.4-1.1,5.1-0.5c1.2,0.5,2.3,1.6,2.8,3.1c0.5,1.3,0.6,2.6,0.7,3.9c0.1,2.3,0.1,4.9-0.5,7.3c-0.8,3-2.1,4.8-3.7,5.2
				C-193.2,407-193.4,407-193.6,407z M-200.3,393.9c0.1,3.7,1.6,7.5,4.1,10.3c1.1,1.2,2.1,1.8,2.9,1.6c1.1-0.3,2.1-1.8,2.8-4.4
				c0.6-2.3,0.6-4.7,0.5-6.9c-0.1-1.2-0.2-2.5-0.6-3.6c-0.4-1.2-1.2-2.1-2.2-2.4c-1.3-0.5-2.9-0.1-4.2,0.5c-0.9,0.4-2,0.8-2.6,1.6
				C-200.1,391.3-200.4,392.4-200.3,393.9L-200.3,393.9z"/>
		</g>
		<g>
			<path class="st0" d="M-199.4,438.9c-1,0-2-0.3-2.9-1.1c-0.9-0.9-1.3-2.2-1.5-3.2l-1.5-5.9c-0.9-3.4,0.3-7.2,2.9-8.7
				c2.1-1.3,4.6-0.8,7,1.4l0,0c1.9,1.7,2.8,4.3,3.4,6.4c1,3.6,0.8,6.2-0.7,8.1c-0.8,1-1.8,1.6-2.6,2
				C-196.1,438.2-197.7,438.9-199.4,438.9z M-200.1,420.5c-0.6,0-1.2,0.2-1.8,0.5c-2.1,1.2-3.1,4.5-2.3,7.4l1.5,5.9
				c0.2,0.9,0.5,2,1.2,2.7c1.3,1.3,3.7,0.7,5.5-0.2c0.7-0.4,1.7-0.9,2.3-1.7c1.2-1.5,1.3-3.8,0.4-7c-0.5-1.9-1.3-4.3-3-5.8
				C-197.6,421.1-198.9,420.5-200.1,420.5z"/>
		</g>
		<g>
			<path class="st0" d="M-191.6,431.3l-0.5-1.1c0.3-0.1,0.7-0.3,1-0.4c1.4-0.6,3.1-1.3,3.8-2.3c1-1.5,1-3.4,0.9-5.1
				c-0.2-3-1.1-4.8-2.6-5.5c-0.5-0.2-1.2-0.3-1.9-0.3c-2.5,0.1-5.1,1.4-6.6,3.4l-0.9-0.7c1.7-2.3,4.6-3.8,7.5-3.9
				c0.9,0,1.7,0.1,2.4,0.4c2,0.9,3.1,3,3.3,6.5c0.1,1.9,0.1,4.1-1.1,5.8c-0.9,1.3-2.7,2.1-4.3,2.7C-191,431-191.3,431.2-191.6,431.3
				z"/>
		</g>
		<g>
			<path class="st0" d="M-187,443.5c-1.2,0-2.5-0.4-3.5-0.9c-2-1.1-3.5-3-4.8-4.7l0.9-0.7c1.2,1.6,2.6,3.4,4.5,4.4
				c1.6,0.9,3.9,1.2,5.5-0.1c1.1-0.9,1.7-2.6,1.6-4.6c-0.1-2.7-1.3-5.3-3.2-7.2c-0.2-0.2-0.4-0.3-0.6-0.4c-0.4-0.2-1.1-0.6-0.8-1.6
				l1.1,0.4c0,0.1,0.1,0.2,0.2,0.2c0.2,0.1,0.6,0.3,0.8,0.6c2.1,2.1,3.4,5,3.5,8c0.1,2.4-0.6,4.4-2,5.6
				C-184.7,443.1-185.9,443.5-187,443.5z"/>
		</g>
		<g>
			<path class="st0" d="M-182.6,435.2l-0.1-1.2c1.5-0.1,3.9-1.3,5-2.6c0.9-1.1,1.9-2.4,1.9-3.9c0-0.6-0.2-1.2-0.5-1.9
				c-1.4-2.8-5.9-4.7-9.3-4l-0.3-1.1c4-0.9,9,1.3,10.6,4.6c0.4,0.9,0.6,1.7,0.7,2.5c0,1.8-1.1,3.5-2.1,4.6
				C-178,433.7-180.7,435-182.6,435.2z"/>
		</g>
		<g>
			<path class="st0" d="M-175.6,425l-0.6-1c1.1-0.7,2-2.1,2.3-3.9c0.3-1.8,0-3.7-0.9-5.2c-1-1.5-2.6-2.6-4.3-2.8
				c-0.9-0.1-1.8,0.1-2.7,0.2c-2.2,0.4-5.2,2-6.4,4.2l-0.2,0.4l-0.5-0.1c-0.7-0.2-0.6-1.4-0.6-1.4l0.6,0c1.5-2.3,4.5-3.9,6.9-4.3
				c0.9-0.2,2-0.3,3-0.2c2,0.2,4,1.5,5.2,3.3c1,1.7,1.4,3.9,1.1,6C-173.2,422.4-174.2,424.1-175.6,425z"/>
		</g>
		<g>
			<path class="st0" d="M-173.1,417.3l-0.9-0.8c1.1-1.2,2.4-3,2.6-4.6c0.2-1.6-0.3-3.3-1.2-4.4c-1.5-1.7-4.1-2.3-7.8-2
				c-1.5,0.2-3.3,0.4-4.5,1.5c-0.5,0.5-0.9,1-1.2,1.5c-1,1.6-1.4,4.3-0.8,6l-1.1,0.4c-0.7-1.9-0.3-5.2,0.9-7
				c0.3-0.5,0.8-1.2,1.5-1.7c1.4-1.2,3.4-1.6,5.1-1.7c4.1-0.4,7.1,0.4,8.8,2.4c1.2,1.4,1.8,3.4,1.5,5.3
				C-170.5,414.4-172.5,416.7-173.1,417.3z"/>
		</g>
		<g>
			<path class="st0" d="M-170.5,410.3l-0.5-1.1c1.6-0.8,3-3,2.9-4.7c-0.1-2.1-1.4-3.8-2.4-4.9c-0.4-0.4-0.9-0.9-1.5-1.1
				c-0.4-0.1-0.8-0.1-1.3-0.2c-0.9,0-1.8-0.1-2.7,0.1c-1.5,0.2-3,1-4.3,1.6c-1.3,0.7-2.6,1.3-3.7,2.3c-1,0.9-1.8,3.8-1.7,5.1
				l-1.2,0.1c-0.2-1.6,0.8-4.8,2-6c1.2-1.1,2.6-1.9,4-2.5c1.4-0.7,3-1.5,4.7-1.8c1-0.2,2-0.1,2.9-0.1c0.5,0,1.1,0,1.6,0.2
				c0.9,0.3,1.5,0.9,2,1.4c1.1,1.2,2.5,3.2,2.7,5.6C-166.8,406.7-168.4,409.3-170.5,410.3z"/>
		</g>
		<g>
			<path class="st0" d="M-187.6,409.4c-1.8-2.4-2.3-5.7-1.3-8.5c0.4-1.2,1.1-2.4,1.7-3.4c1.5-2.4,3.4-5,6.3-5.9
				c1.8-0.5,3.9-0.3,5.5,0.7c1.7,1,3,3.5,3.4,5.4l-1.1,0.2c-0.3-1.6-1.5-3.8-2.8-4.6c-1.3-0.8-3-1-4.6-0.6c-2.5,0.7-4.2,3-5.6,5.4
				c-0.6,1-1.2,2-1.6,3.1c-0.8,2.5-0.4,5.3,1.2,7.4L-187.6,409.4z"/>
		</g>
		<g>
			<path class="st0" d="M-188.9,393.2l-1.1-0.3c0.5-1.8,2.6-3.6,4.5-3.8c1.9-0.2,3.8,0.8,4.7,2.5l-1,0.6c-0.7-1.3-2.2-2-3.6-1.9
				C-186.8,390.4-188.5,391.8-188.9,393.2z"/>
		</g>
		<g>
			<path class="st0" d="M-190.4,409.3c0,0-0.1,0-0.1,0c-1.1-0.1-2.1-0.9-2.6-2c-0.3-0.6-0.1-1.1,0.1-1.2l0.9,0.8
				c0-0.1,0.1-0.1,0.1-0.1c0.4,0.9,1,1.4,1.7,1.4c0.1,0,0.4-0.1,0.7-0.3c0.5-0.4,0.8-1,0.8-1.4l1.2,0.1c-0.1,0.8-0.7,1.7-1.3,2.2
				C-189.5,409-190,409.3-190.4,409.3z"/>
		</g>
		<g>
			<path class="st0" d="M-207.6,437.6c-0.3,0-0.7,0-1-0.1c-2.1-0.5-3.9-2.2-4.9-4.5c-0.8-2.1-0.9-4.4-0.8-6.5c0-1.2,0.1-2.5,0.8-3.6
				c0.8-1.4,2.5-2.3,4.2-2.4c0,0,0.1,0,0.1,0c1.6,0,3.8,1,5.1,2l-0.7,0.9c-1.2-0.9-3.2-1.7-4.5-1.7c-1.4,0-2.6,0.7-3.2,1.8
				c-0.5,0.9-0.6,2-0.6,3.1c-0.1,2,0,4.1,0.8,6c0.8,2,2.3,3.5,4,3.8c1.7,0.4,3.9-0.6,4.3-2.4l1.1,0.2
				C-203.4,436.2-205.4,437.6-207.6,437.6z"/>
		</g>
		<g>
			<path class="st0" d="M-216.5,437.4c-0.1,0-0.2,0-0.3,0c-1.6-0.1-3.1-0.7-4.7-1.4c-0.7-0.3-1.5-0.7-2.2-1.3c-1-1-1.2-2.5-1.2-3.5
				c0-2.9,1.5-5.9,4-7.8c3-2.3,7.9-2.2,9.3-2.2l-0.1,1.2c-2.8-0.1-6.4,0.3-8.5,1.9c-2.2,1.7-3.5,4.3-3.5,6.9c0,0.8,0.2,2,0.9,2.7
				c0.4,0.5,1,0.8,1.8,1.1c1.4,0.6,2.8,1.2,4.3,1.3c0.1,0,0.1,0,0.2,0c1.4,0,3.1-1,4-2l0.9,0.8
				C-212.7,436.2-214.8,437.4-216.5,437.4z"/>
		</g>
		<g>
			<path class="st0" d="M-225.1,431.2c-1.2,0-2.3-0.9-2.8-1.8c-0.5-0.9-0.6-2.1-0.4-3.6c0.3-2.6,1.4-4.9,2.5-7.1
				c0.5-1,1.1-2.1,2-3.1c2-2.1,5.3-2.8,8-1.6c2.6,1.1,4.4,4.1,4.3,6.9l-1.2-0.1c0.1-2.4-1.4-4.8-3.6-5.8c-2.2-1-5-0.4-6.7,1.4
				c-0.8,0.8-1.3,1.8-1.8,2.8c-1.1,2.1-2.1,4.3-2.4,6.7c-0.2,1.2-0.1,2.2,0.3,2.9c0.4,0.7,1.3,1.4,2.1,1.2l0.3,1.1
				C-224.7,431.2-224.9,431.2-225.1,431.2z"/>
		</g>
		<g>
			<path class="st0" d="M-230.4,429c-1.1,0-2.1-0.7-2.7-1.8c-0.5-1-0.5-2.1-0.5-3c0-1.2,0.1-2.4,0.3-3.7c0.2-1.5,0.6-3.4,1.5-5.1
				c1-1.8,2.5-3.1,4.1-3.6c2-0.6,4.1,0,5.7,0.5c0.4,0.1,0.9,0.5,1.4,0.8c0.3,0.2,0.7,0.4,0.9,0.5l-0.5,1.1c-0.3-0.1-0.7-0.4-1.1-0.6
				c-0.4-0.2-0.8-0.5-1.1-0.6c-1.4-0.5-3.3-1-5-0.5c-1.4,0.4-2.6,1.5-3.4,3c-0.8,1.5-1.2,3.3-1.3,4.7c-0.2,1.3-0.3,2.5-0.3,3.6
				c0,0.8,0,1.7,0.4,2.5c0.3,0.7,1,1.2,1.6,1.2c0,0,0,0,0,0c0.7,0,1.7-0.5,2.2-1l0.8,0.9C-228.1,428.3-229.3,428.9-230.4,429
				C-230.4,429-230.4,429-230.4,429z"/>
		</g>
		<g>
			<path class="st0" d="M-211.9,418.2l-1-0.6c0.6-1,1.1-2,0.9-2.9c-0.1-0.5-0.4-1-0.7-1.4c-1.4-2-3.5-3.6-6.8-5.1
				c-0.9-0.4-1.8-0.8-2.7-0.8c0,0,0,0,0,0c-1.1,0-2.2,0.5-3,1.4c-0.7,0.8-1.3,1.8-1.7,3.2l-1.1-0.3c0.5-1.5,1.1-2.7,2-3.7
				c1.1-1.2,2.5-1.8,3.9-1.8c0,0,0,0,0,0c1.2,0,2.2,0.5,3.2,0.9c3.4,1.6,5.7,3.3,7.3,5.5c0.3,0.5,0.7,1.1,0.8,1.8
				C-210.6,415.8-211.2,417-211.9,418.2z"/>
		</g>
		<g>
			<path class="st0" d="M-211.2,415.7l-0.4-1.1c1.1-0.3,2.4-1.4,2.6-2.4c0.2-1,0.1-2.1-0.3-3.6c-0.8-2.8-2.4-5.3-4.6-7.2
				c-1.3-1.2-2.5-1.8-3.8-2.1c-1.4-0.3-2.9,0.1-3.8,1c-0.5,0.5-0.8,1.1-1.1,2c-0.4,1.2-0.6,3.1-0.5,4.5l-1.2,0.1
				c-0.1-1.6,0.1-3.6,0.6-5c0.3-1.1,0.8-1.9,1.4-2.5c1.2-1.2,3-1.7,4.9-1.3c1.4,0.3,2.9,1.1,4.3,2.4c2.3,2.1,4,4.7,4.9,7.7
				c0.5,1.6,0.6,3,0.3,4.2C-208.1,413.9-209.8,415.3-211.2,415.7z"/>
		</g>
		<g>
			<path class="st0" d="M-207.4,412.9c-0.3,0-0.7-0.1-0.9-0.3l0.7-1c0.3,0.2,0.9,0,1.3-0.4c2.3-2.1,1.5-5.9,1.2-7
				c-0.8-3-2.5-5.6-4.7-7.7c-1.1-1-2-1.5-2.9-1.7c-1-0.2-2.2,0.1-3,0.9c-0.8,0.7-1.2,1.8-1.1,2.9l-1.2,0.1c-0.2-1.4,0.4-2.9,1.4-3.9
				c1-1,2.6-1.4,4-1.2c1.5,0.3,2.7,1.3,3.5,2c2.4,2.2,4.2,5.1,5,8.3c1,3.4,0.4,6.5-1.5,8.2C-206.1,412.6-206.8,412.9-207.4,412.9z"
				/>
		</g>
		<g>
			<path class="st0" d="M-201.3,408c-1.2,0-2.6-0.4-3.4-1.1l0.8-0.9c0.7,0.7,2.6,1,3.5,0.7c0.9-0.4,2.1-2,2.1-3l1.2,0.1
				c-0.1,1.5-1.5,3.5-2.9,4C-200.3,407.9-200.8,408-201.3,408z"/>
		</g>
		<g>
			<path class="st0" d="M-211.2,395c-0.3-1.5,0.3-3.2,1.6-4.8c0.9-1.2,1.8-1.9,2.8-2.2c0.7-0.3,1.4-0.3,2.1-0.4
				c0.7-0.1,1.5-0.1,2.3,0c1,0.2,2,0.8,2.6,1.6l-0.9,0.7c-0.5-0.6-1.2-1-2-1.2c-0.6-0.1-1.3-0.1-2,0c-0.6,0-1.2,0.1-1.8,0.3
				c-0.8,0.3-1.5,0.9-2.3,1.8c-0.8,1-1.6,2.4-1.4,3.9L-211.2,395z"/>
		</g>
		<g>
			<path class="st0" d="M-196.1,451.9c-0.1,0-0.1,0-0.2,0c-1.3-0.1-2.7-0.8-3.6-2c-0.7-0.9-1.2-2.1-1.5-3.7
				c-0.4-2.3-0.2-5.3,0.5-7.6l1.1,0.3c-0.7,2.1-0.8,4.9-0.5,7c0.2,1.3,0.6,2.4,1.2,3.2c0.7,0.9,1.7,1.5,2.7,1.6c0.4,0,1-0.1,1.6-0.3
				c3-1,5.2-3.9,5.4-7.1l1.2,0.1c-0.2,3.6-2.7,7-6.2,8.1C-194.9,451.8-195.5,451.9-196.1,451.9z"/>
		</g>
		<g>
			<path class="st0" d="M-205.7,451.7c-0.4,0-0.9,0-1.3-0.2c-0.9-0.3-1.7-1-2.4-2c-2.4-3.6-1.8-9.1-0.2-12.7l1.1,0.5
				c-1.5,3.4-2,8.5,0.1,11.6c0.6,0.8,1.2,1.3,1.8,1.5c0.7,0.2,1.4,0.1,2.2,0c0.7-0.1,1.3-0.2,1.9-0.5c0.6-0.3,1.7-1.7,1.7-2.1l1.2,0
				c0,1.1-1.7,2.7-2.4,3.1c-0.8,0.4-1.6,0.5-2.3,0.6C-204.8,451.6-205.2,451.7-205.7,451.7z"/>
		</g>
		<g>
			<path class="st0" d="M-213.5,448.9c-0.4,0-0.7,0-1-0.1c-1.6-0.4-3.1-1.2-4-2.4c-1.1-1.3-1.5-3-1.2-4.6c0.2-1,0.7-1.9,1.2-2.8
				c0.2-0.3,0.4-0.8,0.6-1.2c0.2-0.5,0.5-1,0.6-1.3l1,0.6c-0.1,0.3-0.4,0.7-0.6,1.2c-0.2,0.5-0.5,1-0.6,1.3
				c-0.4,0.8-0.9,1.6-1.1,2.5c-0.2,1.2,0.1,2.6,1,3.6c0.8,1,2,1.7,3.4,2c1.1,0.3,3.1-0.2,3.7-1l0.9,0.7
				C-210.3,448.5-212.1,448.9-213.5,448.9z"/>
		</g>
		<g>
			<path class="st0" d="M-222.2,443.1c-1.3,0-2.6-0.3-3.8-1c-2.1-1.3-3.5-3.7-3.6-6.2c0-1.9,1.2-4.4,2.4-6.6l1,0.6
				c-0.7,1.2-2.2,4.1-2.2,6c0,2.1,1.2,4.1,3,5.2c1.8,1.1,4.2,1.1,6,0.2l0.5,1C-219.9,442.9-221,443.1-222.2,443.1z"/>
		</g>
		<g>
			<path class="st0" d="M-183.5,446.5c-1.9,0-3.7-0.6-5.2-1.7l0.7-0.9c1.9,1.4,4.5,1.9,6.7,1.1c2.2-0.8,4-2.7,4.6-5
				c0.2-0.9,0.3-1.8,0.3-2.7c0.1-1.7,0.1-3.5-0.9-4.7l0.9-0.8c1.3,1.5,1.3,3.5,1.2,5.5c-0.1,0.9-0.1,2-0.4,3c-0.7,2.7-2.8,5-5.4,5.8
				C-181.7,446.3-182.6,446.5-183.5,446.5z"/>
		</g>
		<g>
			<path class="st0" d="M-175.9,441.2l-0.7-0.9c0.4-0.3,0.8-0.6,1.2-0.9c1.9-1.3,4-2.9,4.6-4.8c0.6-2.1-0.1-4.4-0.7-6
				c-0.9-2.3-1.9-3.6-3.2-4.2l0.5-1.1c2.2,0.9,3.2,3.2,3.8,4.9c0.6,1.7,1.4,4.3,0.7,6.7c-0.6,2.3-3,4-5,5.4
				C-175.1,440.6-175.5,440.9-175.9,441.2z"/>
		</g>
		<g>
			<path class="st0" d="M-171.4,426.9c-0.2,0-0.4,0-0.6,0l0.1-1.2c1.8,0.2,3.6-0.9,4.2-2.6c0.2-0.6,0.3-1.4,0.3-2.4
				c0-1.7-0.3-3-0.9-4.1c-0.7-1.3-1.8-2.2-3-2.3l0.2-1.2c1.6,0.2,3,1.3,3.9,2.9c0.7,1.2,1,2.8,1,4.6c0,0.7,0,1.8-0.4,2.8
				C-167.2,425.5-169.3,426.9-171.4,426.9z"/>
		</g>
		<g>
			<path class="st0" d="M-166.2,421l-0.9-0.7c1.2-1.7,2.6-4.4,2.3-6.3c-0.3-1.9-1.8-4.6-3.4-5.9c-0.1-0.1-0.5-0.4-0.3-0.8l0.2-0.4
				l0.5,0.1c0.1,0,0.1,0,0.2,0l0,0.1c1.9,1.6,3.6,4.5,3.9,6.7C-163.4,416.1-164.8,419.1-166.2,421z"/>
		</g>
		<g>
			<path class="st0" d="M-165.4,430.1l-0.6-1c1.6-1.1,2.7-3,2.9-4.9c0.2-2-0.6-4-2.1-5.3l0.8-0.9c1.7,1.6,2.6,4,2.4,6.3
				C-162.1,426.6-163.4,428.8-165.4,430.1z"/>
		</g>
		<g>
			<path class="st0" d="M-169.4,439.4c-0.5,0-1-0.1-1.6-0.2c-0.8-0.1-1.7-0.3-2.1-0.1l-0.4-1.1c0.7-0.2,1.7-0.1,2.7,0.1
				c0.6,0.1,1.2,0.2,1.6,0.2c2-0.2,3-2.8,3.4-3.9c0.6-1.8,0.7-3.4,0.4-4.7c-0.3-1.5-1.8-3.4-3.2-3.9l0.4-1.1
				c1.7,0.7,3.5,2.8,3.9,4.8c0.3,1.5,0.2,3.3-0.4,5.3c-0.4,1.3-1.6,4.4-4.3,4.7C-169.2,439.4-169.3,439.4-169.4,439.4z"/>
		</g>
		<g>
			<path class="st0" d="M-178.2,447.7c-1.3,0-2.6-0.4-3.7-1.2l0.7-0.9c2.1,1.6,5.2,1,7-0.3c0.4-0.3,0.7-0.6,0.9-0.8
				c1.1-1.3,1.2-3.9,1.2-5.5l1.2,0c-0.1,1.8-0.2,4.6-1.5,6.2c-0.3,0.4-0.7,0.7-1.1,1C-174.8,447-176.5,447.7-178.2,447.7z"/>
		</g>
		<g>
			<path class="st0" d="M-172.6,446.4c-0.5,0-1-0.1-1.4-0.2l0.3-1.1c1.4,0.4,3.3,0,4-1.2c0.8-1.3,0.9-3.6,1.1-5.2l0-0.2l1.2,0.1
				l0,0.2c-0.1,1.7-0.3,4.1-1.2,5.7C-169.5,445.8-171.1,446.4-172.6,446.4z"/>
		</g>
		<g>
			<path class="st0" d="M-188.8,454.5c-0.1,0-0.1,0-0.2,0c-2.1-0.1-3.9-1.1-5.6-2c-0.3-0.2-0.6-0.4-0.6-0.8c0-0.2,0-0.5,0.2-0.7
				l0.8,0.8c0.2-0.2,0.1-0.4,0.1-0.4c1.6,0.9,3.3,1.8,5.1,1.9c0.1,0,0.1,0,0.2,0c2.2,0,4.4-1.2,6.8-3.8c0.7-0.7,1.3-1.5,1.4-2.3
				l1.2,0.1c-0.1,1.2-0.9,2.1-1.7,3C-183.8,453.2-186.3,454.5-188.8,454.5z"/>
		</g>
		<g>
			<path class="st0" d="M-195.7,457.7c-3.8,0-7.7-2.4-9.3-5.9l1.1-0.5c1.6,3.5,5.6,5.7,9.4,5.1c1.5-0.2,3.2-1,3.9-2.5l1.1,0.4
				c-0.7,1.7-2.5,2.9-4.8,3.3C-194.8,457.7-195.3,457.7-195.7,457.7z"/>
		</g>
		<g>
			<path class="st0" d="M-184,456.4c-0.4,0-0.7,0-1.1,0c-1.4-0.1-3.2-1.1-4.3-2l0.8-0.9c0.9,0.8,2.5,1.6,3.6,1.7
				c0.8,0.1,1.7,0.1,2.4-0.1c1.3-0.4,2.4-1.4,3.1-2.9c0.7-1.4,1-3.4,1.1-4.9l1.2,0.2c-0.2,1.6-0.5,3.7-1.3,5.3
				c-0.9,1.8-2.3,3-3.9,3.5C-182.8,456.4-183.4,456.4-184,456.4z"/>
		</g>
		<g>
			<path class="st0" d="M-176.9,452.4c-0.5,0-0.9-0.1-1.4-0.2l0.4-1.1c1.1,0.4,2.5,0,3.5-0.9c0.9-0.8,1.5-2.8,1.7-4.4l1.2,0.2
				c-0.2,1.1-0.7,3.9-2.1,5.1C-174.5,452-175.7,452.4-176.9,452.4z"/>
		</g>
		<g>
			<path class="st0" d="M-188.4,460.4c-1,0-2-0.3-3-0.8c-0.8-0.4-2.3-1.5-3-2.2l0.9-0.8c0.5,0.6,1.9,1.5,2.7,2
				c1,0.5,1.8,0.7,2.7,0.7c0.9,0,1.8-0.5,2.2-1.1c0.4-0.6,0.5-1.3,0.6-2l1.2,0.2c-0.1,0.8-0.3,1.7-0.8,2.5c-0.6,1-1.8,1.6-3.1,1.6
				C-188.2,460.4-188.3,460.4-188.4,460.4z"/>
		</g>
		<g>
			<path class="st0" d="M-193.6,461.4c-0.4,0-0.8-0.1-1.2-0.2c-1.7-0.5-3.3-2.4-3.8-4l1.1-0.3c0.4,1.3,1.8,2.8,2.9,3.2
				c1.2,0.3,2.7,0,3.6-0.9l0.8,0.8C-191,460.9-192.3,461.4-193.6,461.4z"/>
		</g>
		<g>
			<path class="st0" d="M-205.3,456.9c-0.5,0-1-0.1-1.4-0.2c-1.4-0.4-2.7-1.2-4.2-2.6c-0.7-0.7-1.3-1.3-1.7-1.9
				c-0.7-1-1.2-2-1.4-3.1l1.1-0.3c0.2,1,0.7,1.9,1.2,2.7c0.4,0.6,0.9,1.1,1.6,1.7c1.3,1.2,2.5,2,3.7,2.3c1.2,0.4,3.3,0,4.5-0.9
				l0.7,1C-202.2,456.4-203.8,456.9-205.3,456.9z"/>
		</g>
		<g>
			<path class="st0" d="M-199.1,461.3c-2.6,0-4.6-0.6-6-1.8c-0.9-0.8-1.3-1.6-1.3-2.5l1.2,0c0,0.7,0.6,1.3,0.9,1.6
				c1.4,1.2,3.5,1.7,6.3,1.5c0.4,0,0.9-0.1,1.1-0.4l1,0.6c-0.4,0.7-1.3,0.9-2,0.9C-198.3,461.3-198.7,461.3-199.1,461.3z"/>
		</g>
		<g>
			<path class="st0" d="M-210.6,454.3c-2.9-0.6-6.1-1.5-7.7-3.6c-0.7-1-0.7-2.9-0.7-4.4c0-0.3,0-0.6,0-0.8l1.2,0c0,0.2,0,0.5,0,0.9
				c0,1.1,0,3,0.5,3.7c1.3,1.8,4.4,2.7,7,3.2L-210.6,454.3z"/>
		</g>
		<g>
			<path class="st0" d="M-207.2,459.9c-1.3,0-2.6-0.3-3.7-1c-1.8-1.1-3.1-3.7-3.4-5.7l1.2-0.2c0.3,1.7,1.3,4,2.8,4.9
				c1.5,0.9,3.4,1.1,5,0.5l0.4,1.1C-205.7,459.8-206.4,459.9-207.2,459.9z"/>
		</g>
		<g>
			<path class="st0" d="M-219.7,448.5c-1.3,0-2.7-0.5-3.7-1.3c-1.3-1-2.1-3.4-2.1-5l1.2,0c0,1.4,0.7,3.4,1.7,4.2
				c1,0.8,2.4,1.2,3.7,1l0.2,1.2C-219.1,448.5-219.4,448.5-219.7,448.5z"/>
		</g>
	</g>
	<g>
		<path class="st0" d="M-228.8,436.6l-0.5-0.2c0,0-0.6-0.3-1.2-1c-0.8-0.7-1.5-1.8-1.9-2.9c-0.9-2.3-0.5-4.8-0.5-4.9l0.1-0.6l1,0.2
			l0.2,0.4c0,0,0.1,0.6,0.3,1.4c0,0.3,0.1,0.5,0.2,0.7c0.1,0.2,0.1,0.5,0.2,0.7c0.1,0.5,0.3,1,0.4,1.4c0.3,1,0.8,1.8,1.3,2.6
			c0.4,0.7,0.8,1.1,0.8,1.2l0.3,0.3L-228.8,436.6z"/>
	</g>
</g>
</svg>
